<?xml version="1.0" encoding="utf-8"?>
<!-- Generator: Adobe Illustrator 24.3.0, SVG Export Plug-In . SVG Version: 6.00 Build 0)  -->
<svg version="1.1" id="angel" xmlns="http://www.w3.org/2000/svg" xmlns:xlink="http://www.w3.org/1999/xlink" x="0px" y="0px"
	 viewBox="0 0 210.4 102.7" style="enable-background:new 0 0 210.4 102.7;" xml:space="preserve">
<style type="text/css">
	.st0{fill:url(#SVGID_1_);stroke:#FFFFFF;stroke-miterlimit:10;}
	.st1{fill:#FFFF04;}
	.st2{fill:#FFFE04;}
	.st3{fill:#E1EC84;stroke:#000000;stroke-width:0.5;stroke-miterlimit:10;}
	.st4{fill:#020180;}
	.st5{fill:#020181;}
</style>
<linearGradient id="SVGID_1_" gradientUnits="userSpaceOnUse" x1="137.4706" y1="19.7647" x2="203.7546" y2="19.7647">
	<stop  offset="0" style="stop-color:#FFFFFF"/>
	<stop  offset="0.6171" style="stop-color:#FFFF61"/>
	<stop  offset="1" style="stop-color:#FFFF04"/>
</linearGradient>
<path class="st0" d="M137.5,24.3c0,0,50.6-3.6,63.9-12.9c0,0,3,7.3,2.3,15.7c0,0-13.6-7.1-65.5,0.9L137.5,24.3z"/>
<path class="st1" d="M14.8,3.9c0,0,26.1,6.6,33.6,5.6l20.2,0.1c0,0,16,1.1,17.2,9.8c0,0,6.1,7.5,10.8,8.7c1.1,0.3,2.6,0.7,4.2,0.8
	c1.6,0.2,3.1,0.1,4.2,0c0.3-0.2,0.5-0.5,0.8-0.7c0.1-0.2,0.1-0.5,0.1-0.8c-0.1-1.1-1-1.8-1.2-2c-0.7-0.5-1.5-0.5-1.9-0.5
	c-0.8-0.2-1.7-0.3-2.7-0.4c-1.1,0-2,0-2.7,0.1c-0.2,0.2-0.6,0.5-1.1,0.7c-0.7,0.2-1.8,0.2-3.3-0.7c0,0-1.9-3.2-0.1-4.9
	c0,0-6.1,0.2-6.7-3.8c0,0-2.6-3.4,0-7.1c0,0,2.7-2.1,4.6-0.1c0,0,2.5,2.6-0.1,2c0,0-1.9-0.6-2.5,1.4c0,0,0.6,1.8,2.4,0.4
	c0,0,5.3-0.9,4.4,3.4c0,0,1.5,0.7,2.6,0c0,0,5.5-9.3,8-2c0,0,0.5,1.8,3.4,0c0,0,0.8-4,4.6-2.2c0,0,6.1-7.9,13.3-9.9
	c0,0,14.5-2.9,7.1,9.1c0,0,3.5,7.3,1.3,9.6c0.6,0.4,2.7,2,3.3,5c0.9,4.4-2.5,7.6-2.7,7.8c-0.9,0.3-2,0.6-3.4,0.7
	c-2.1,0.1-3.7-0.2-4.8-0.5c-0.2,0.4-0.4,0.8-0.8,1.2c-0.9,1.1-2.1,1.7-2.8,2c0,0-0.5,2.8,4.9,2.1l6,0.1c0,0,12.8-9.2,16.2-8.9
	c0,0,1.6-0.9,2-3.8c0,0,9.2-13.6,12.9-5.3c0,0,1.3,6.7-6.8,12.7c0,0-7.9,5.9-0.2,12.9c1.5,0.9,1.8,1.6,1.8,2.1
	c-0.1,2.1-6.1,3.5-8.7,4h-8.8c-0.8,0.4-1,1.2-0.7,1.7c0.2,0.3,0.6,0.4,1,0.4c0.7-0.1,1.5-0.2,2.4-0.3c1.1-0.1,1.8-0.2,2.8,0
	c0.7,0.2,1,0.4,1.1,0.6c0.2,0.4,0,0.8-0.1,1c-0.4,0.4-0.7,0.6-0.9,0.6c-0.3,0-0.5,0-0.8,0.1c-0.2,0.1-0.4,0.3-0.4,0.5
	c0,0.1,0.1,0.2,1.1,0.1c0.7-0.1,2-0.2,3.4,0.2c2,0.7,4.3,2.5,4.4,4.4c0,2-2.9,4.5-7.4,4.8h-8.9v3.4c0,0-17.4-1.2-28.2-9.3
	c0,0-3-5.1-6.5-0.4c0,0-35.1,38.6-51.7,41.3c0,0-5.8,5.2-19-13.2c0,0-2.3-4.3-7.6-0.1c0,0-29.6,14.1-12.5-3.9
	c0,0,11.3-12.9,11.6-3.2h3.3c0,0,1.6-1.1-3.9-7.1c0,0-2.6-4.9-10.6,0c0,0-26.5,7.6-5.9-6.4c0,0,8.1-8.1,9-0.9l2.1,0.2
	c0,0-4.1-5.5-1.6-9.5h2.6l0.4-5.8c0,0-4.8-4.8,0-4.8l36.4,0.4c0,0,18.5-0.4,27-4.8c0,0,1.6-2.8-2.6-1.1c0,0-17.3,5.3-25.2,1.8
	c0,0-2.9-0.4-3.6-4.2c0,0-13.4,0.4-12-5.5c0,0-13.4-0.5-9.5-7.1c0,0-13-1.9-4.3-6c0,0-14.6-3.5-4.6-7.1C23.6,13.8,8.1,5.3,14.8,3.9z
	"/>
<path class="st2" d="M180.4,21.4c0,0,18.5-6.1,19.3-7.6c0,0,2.1,7,0,9.5C199.8,23.4,185.3,21.6,180.4,21.4z"/>
<path class="st3" d="M200.3,8.2c0,0,4.8,5.4,3.5,21.7h4.5c0,0,0.9-19.6-4-22.9L200.3,8.2z"/>
<circle class="st4" cx="52.6" cy="94" r="1.4"/>
<circle class="st4" cx="39.3" cy="74.6" r="1.4"/>
<circle class="st4" cx="31.2" cy="55" r="1.4"/>
<path class="st5" d="M36.7,64.8c0,0-1-9.5-5.5,2.5C31.2,67.2,43.4,69.7,36.7,64.8z"/>
<path class="st5" d="M42.1,85.7c0,0,12.2,3.1,5.5-3.1C47.6,82.6,46.6,70.9,42.1,85.7"/>
<path class="st4" d="M116.1,13.6c0,0,9.2-12.4,15.2-6.5c0,0,0,2.9-4.4,2.5c0,0-7.8-0.2-8.8,4H116.1z"/>
</svg>
